<svg width="162" height="51" viewBox="0 0 162 51" fill="none" xmlns="http://www.w3.org/2000/svg">
<g clip-path="url(#clip0_2003_1350)">
<path d="M85.1357 13.4657C85.1357 15.2653 83.674 16.7143 81.8601 16.7143C80.0461 16.7143 78.5855 15.2653 78.5855 13.4657C78.5855 11.6662 79.9963 10.2171 81.8601 10.2171C83.7254 10.2671 85.1357 11.7166 85.1357 13.4657ZM71.6326 20.0139V20.8138C71.6326 20.8138 70.0714 18.8135 66.7459 18.8135C61.2547 18.8135 56.9715 22.9624 56.9715 28.7101C56.9715 34.4083 61.2044 38.6066 66.7459 38.6066C70.1217 38.6066 71.6326 36.5574 71.6326 36.5574V37.4068C71.6326 37.8067 71.9356 38.1058 72.3383 38.1058H76.4187V19.3118H72.3383C71.9356 19.3133 71.6326 19.6638 71.6326 20.0139ZM71.6326 32.059C70.8777 33.159 69.3657 34.1087 67.5523 34.1087C64.328 34.1087 61.8587 32.1095 61.8587 28.7101C61.8587 25.3112 64.328 23.3119 67.5523 23.3119C69.3159 23.3119 70.928 24.3115 71.6326 25.3611V32.059ZM79.4421 19.3133H84.2785V38.1073H79.4421V19.3133ZM151.691 18.813C148.365 18.813 146.803 20.8133 146.803 20.8133V10.2671H141.967V38.1073H146.048C146.451 38.1073 146.753 37.7573 146.753 37.4073V36.5579C146.753 36.5579 148.315 38.6072 151.64 38.6072C157.132 38.6072 161.414 34.4098 161.414 28.7116C161.414 23.0133 157.132 18.813 151.691 18.813ZM150.885 34.0583C149.02 34.0583 147.559 33.1096 146.803 32.0091V25.3112C147.559 24.3115 149.171 23.2619 150.885 23.2619C154.109 23.2619 156.578 25.2612 156.578 28.6601C156.578 32.059 154.109 34.0583 150.885 34.0583ZM139.448 26.9614V38.1573H134.611V27.5107C134.611 24.4124 133.603 23.1621 130.884 23.1621C129.424 23.1621 127.912 23.9121 126.953 25.0121V38.1078H122.117V19.3138H125.945C126.348 19.3138 126.651 19.6638 126.651 20.0139V20.8138C128.062 19.3637 129.925 18.8135 131.789 18.8135C133.906 18.8135 135.669 19.4142 137.08 20.6135C138.792 22.0131 139.448 23.8122 139.448 26.9614ZM110.377 18.813C107.052 18.813 105.49 20.8133 105.49 20.8133V10.2671H100.653V38.1073H104.734C105.137 38.1073 105.439 37.7573 105.439 37.4073V36.5579C105.439 36.5579 107.002 38.6072 110.326 38.6072C115.818 38.6072 120.101 34.4098 120.101 28.7116C120.151 23.0128 115.869 18.813 110.377 18.813ZM109.57 34.0583C107.706 34.0583 106.246 33.1096 105.49 32.0091V25.3112C106.246 24.3115 107.858 23.2619 109.57 23.2619C112.796 23.2619 115.264 25.2612 115.264 28.6601C115.264 32.059 112.796 34.0583 109.57 34.0583ZM96.4714 18.813C97.932 18.813 98.688 19.0636 98.688 19.0636V23.5116C98.688 23.5116 94.6574 22.1619 92.1388 25.0116V38.1567H87.3014V19.3133H91.3829C91.786 19.3133 92.0875 19.6633 92.0875 20.0134V20.8133C92.9955 19.7632 94.9604 18.813 96.4714 18.813ZM46.2408 36.4076C45.9891 35.8079 45.7369 35.1583 45.4853 34.6081C45.0816 33.7088 44.6785 32.8584 44.3267 32.059L44.2763 32.0091C40.7994 24.5112 37.0718 16.9146 33.1414 9.41771L32.9904 9.11711C32.577 8.3394 32.1742 7.55623 31.782 6.7678C31.2776 5.86752 30.7743 4.9188 29.968 4.01852C28.3559 2.01923 26.0381 0.91922 23.5698 0.91922C21.0502 0.91922 18.7833 2.01924 17.1213 3.91816C16.3653 4.81744 15.8107 5.76716 15.3074 6.66744C14.9141 7.45538 14.5113 8.23853 14.0989 9.01675L13.9474 9.31734C10.0678 16.8142 6.28941 24.4114 2.81299 31.9087L2.76217 32.0081C2.40984 32.809 2.00618 33.6584 1.60302 34.5571C1.35136 35.1074 1.0997 35.7071 0.848045 36.3567C0.192725 38.2057 -0.00911489 39.9553 0.243551 41.7554C0.797704 45.5043 3.31631 48.652 6.79323 50.0526C8.10336 50.6029 9.46383 50.8526 10.8741 50.8526C11.2773 50.8526 11.7806 50.8026 12.1843 50.7522C13.8472 50.5525 15.56 50.0032 17.223 49.0535C19.2886 47.9035 21.2535 46.2548 23.4702 43.8555C25.6868 46.2548 27.7021 47.9035 29.7174 49.0535C31.3808 50.0032 33.0931 50.5525 34.7556 50.7522C35.1587 50.8031 35.663 50.8526 36.0662 50.8526C37.477 50.8526 38.8873 50.6029 40.1466 50.0526C43.6739 48.652 46.1421 45.4544 46.6968 41.7554C47.0969 40.0063 46.8956 38.2576 46.2408 36.4076ZM23.519 39.0066C20.7981 35.6077 19.0344 32.409 18.4304 29.7107C18.1788 28.5608 18.128 27.5611 18.2794 26.6613C18.3796 25.8614 18.6826 25.1614 19.0858 24.5617C20.0431 23.213 21.6552 22.3627 23.5195 22.3627C25.3843 22.3627 27.0467 23.1626 27.9537 24.5617C28.3569 25.1614 28.6589 25.8619 28.7605 26.6613C28.911 27.5616 28.8607 28.6107 28.609 29.7107C28.0026 32.3591 26.2389 35.5583 23.519 39.0066ZM43.6205 41.3559C43.2682 43.9549 41.5045 46.2048 39.0363 47.2045C37.8273 47.7038 36.5167 47.8541 35.2075 47.7038C33.9482 47.5535 32.6879 47.1536 31.3788 46.4046C29.5648 45.4039 27.7514 43.8555 25.6349 41.5556C28.9599 37.5076 30.9751 33.8082 31.7311 30.5101C32.084 28.9602 32.1348 27.5611 31.9828 26.2609C31.782 25.0116 31.328 23.8616 30.6228 22.862C29.06 20.612 26.4397 19.3133 23.5185 19.3133C20.5972 19.3133 17.977 20.663 16.4152 22.862C15.71 23.8616 15.256 25.0116 15.0547 26.2609C14.8534 27.5611 14.9032 29.0102 15.3063 30.5101C16.0618 33.8082 18.1275 37.5571 21.402 41.6056C19.3364 43.905 17.4721 45.4549 15.6582 46.4545C14.348 47.2045 13.0892 47.6045 11.8299 47.7538C10.47 47.9041 9.15933 47.7038 8.00069 47.2544C5.53242 46.2548 3.7688 44.0048 3.41647 41.4059C3.26548 40.1565 3.36564 38.9072 3.86996 37.5076C4.02046 37.0073 4.27312 36.508 4.52478 35.9083C4.8776 35.1084 5.27976 34.258 5.68342 33.4087L5.73426 33.3093C9.21017 25.8614 12.9382 18.2642 16.8178 10.8672L16.9688 10.5667C17.3725 9.81767 17.7756 9.01775 18.1783 8.26777C18.5814 7.46785 19.0344 6.71786 19.5891 6.06774C20.6471 4.86937 22.0573 4.21875 23.6196 4.21875C25.1819 4.21875 26.5923 4.86937 27.6502 6.06774C28.2049 6.71936 28.6579 7.46935 29.061 8.26777C29.4647 9.01775 29.8678 9.81767 30.27 10.5667L30.4215 10.8672C34.2419 18.2949 37.9205 25.7936 41.4552 33.3593V33.4092C41.8589 34.2101 42.2112 35.1089 42.6144 35.9098C42.866 36.5085 43.1182 37.0078 43.2692 37.5082C43.6713 38.8064 43.8223 40.0567 43.6205 41.3559Z" fill="#CFCFDE"/>
</g>
<defs>
<clipPath id="clip0_2003_1350">
<rect width="161.323" height="49.9333" fill="white" transform="translate(0.112305 0.919769)"/>
</clipPath>
</defs>
</svg>
