<svg width="154" height="47" viewBox="0 0 154 47" fill="none" xmlns="http://www.w3.org/2000/svg">
<g clip-path="url(#clip0_2003_1354)">
<path fill-rule="evenodd" clip-rule="evenodd" d="M95.4825 36.4895C86.5878 43.0434 73.6502 46.5352 62.4915 46.5352C46.8585 46.5352 32.8427 40.7871 22.1692 31.2248C21.3606 30.4728 22.0614 29.4521 23.0856 30.043C34.5678 36.7044 48.7452 40.6797 63.4079 40.6797C73.2728 40.6797 84.162 38.6383 94.1887 34.3944C95.6981 33.8034 96.938 35.4151 95.4825 36.4895Z" fill="#CFCFDE"/>
<path fill-rule="evenodd" clip-rule="evenodd" d="M99.2021 32.2455C98.07 30.7951 91.6551 31.5472 88.7981 31.9232C87.9356 32.0307 87.7739 31.2786 88.5825 30.7414C93.7036 27.1421 102.059 28.2165 103.029 29.3984C104 30.5802 102.76 38.9606 97.9622 42.936C97.2075 43.5269 96.5067 43.2046 96.8302 42.3988C97.9083 39.7127 100.334 33.7497 99.2021 32.2455Z" fill="#CFCFDE"/>
<path fill-rule="evenodd" clip-rule="evenodd" d="M88.9598 5.49267V2.00083C88.9598 1.46362 89.3372 1.14129 89.8223 1.14129H105.455C105.94 1.14129 106.372 1.51734 106.372 2.00083V4.95546C106.372 5.43895 105.94 6.0836 105.186 7.15801L97.0998 18.6542C100.119 18.6005 103.299 19.0303 105.994 20.5344C106.587 20.8568 106.749 21.394 106.803 21.8775V25.5842C106.803 26.1214 106.264 26.7123 105.671 26.39C100.873 23.8651 94.4583 23.5965 89.1755 26.4437C88.6364 26.7123 88.0434 26.1751 88.0434 25.6379V22.0923C88.0434 21.5551 88.0434 20.5882 88.6364 19.7286L98.0162 6.3522H89.8763C89.3911 6.3522 88.9598 5.97615 88.9598 5.49267ZM31.9803 27.1421H27.2365C26.8053 27.0884 26.4279 26.766 26.374 26.3363V2.05455C26.374 1.57107 26.8053 1.19502 27.2904 1.19502H31.7108C32.1959 1.19502 32.5194 1.57106 32.5733 2.00083V5.17034H32.6811C33.8132 2.10827 36.0233 0.657811 38.9343 0.657811C41.8992 0.657811 43.7859 2.10827 45.0797 5.17034C46.2117 2.10827 48.8532 0.657811 51.6563 0.657811C53.6509 0.657811 55.8071 1.46362 57.1548 3.34384C58.6642 5.38523 58.3408 8.33987 58.3408 10.9722V26.3363C58.3408 26.8198 57.9095 27.1958 57.4244 27.1958H52.7345C52.2493 27.1421 51.8719 26.766 51.8719 26.3363V13.4433C51.8719 12.4226 51.9798 9.84403 51.7641 8.87706C51.3868 7.26544 50.3625 6.78196 48.961 6.78196C47.8289 6.78196 46.5891 7.53406 46.1039 8.76963C45.6187 10.0052 45.6727 12.0466 45.6727 13.4433V26.3363C45.6727 26.8198 45.2414 27.1958 44.7562 27.1958H40.0124C39.5273 27.1421 39.1499 26.766 39.1499 26.3363V13.4433C39.1499 10.7573 39.5812 6.72824 36.239 6.72824C32.8428 6.72824 32.9506 10.5961 32.9506 13.4433V26.3363C32.8967 26.766 32.5194 27.1421 31.9803 27.1421ZM119.848 0.657811C126.91 0.657811 130.738 6.67452 130.738 14.3566C130.738 21.77 126.533 27.6793 119.848 27.6793C112.948 27.6793 109.175 21.6626 109.175 14.1417C109.121 6.56708 112.948 0.657811 119.848 0.657811ZM119.848 5.65382C116.345 5.65382 116.129 10.435 116.129 13.3896C116.129 16.3442 116.075 22.6833 119.795 22.6833C123.46 22.6833 123.676 17.5798 123.676 14.464C123.676 12.4226 123.568 9.95149 122.975 8.01755C122.436 6.29849 121.358 5.65382 119.848 5.65382ZM139.848 27.1421H135.104C134.619 27.0884 134.242 26.7123 134.242 26.2826V1.9471C134.295 1.51734 134.673 1.14129 135.158 1.14129H139.578C140.01 1.14129 140.333 1.46363 140.441 1.83967V5.54639H140.549C141.896 2.21571 143.729 0.657811 147.017 0.657811C149.12 0.657811 151.222 1.40989 152.57 3.505C153.81 5.43894 153.81 8.7159 153.81 11.0796V26.39C153.756 26.8198 153.378 27.1421 152.893 27.1421H148.15C147.718 27.0884 147.341 26.766 147.287 26.39V13.1747C147.287 10.4887 147.61 6.62081 144.322 6.62081C143.19 6.62081 142.112 7.3729 141.573 8.55475C140.926 10.0589 140.818 11.5094 140.818 13.1747V26.2826C140.764 26.7661 140.333 27.1421 139.848 27.1421ZM76.5074 15.5384C76.5074 17.3649 76.5613 18.9228 75.6449 20.5882C74.8902 21.9312 73.7042 22.737 72.3565 22.737C70.5237 22.737 69.4456 21.3403 69.4456 19.2989C69.4456 15.2698 73.0573 14.5177 76.5074 14.5177V15.5384ZM81.3051 27.0884C80.9816 27.357 80.5504 27.4107 80.173 27.1958C78.6097 25.9065 78.2863 25.2619 77.4238 24.0263C74.8362 26.6586 72.9495 27.4644 69.6073 27.4644C65.6182 27.4644 62.4916 24.9933 62.4916 20.1047C62.4916 16.2368 64.594 13.6582 67.5588 12.3689C70.1464 11.2408 73.7581 11.0259 76.5074 10.7036V10.1126C76.5074 8.98451 76.6152 7.6415 75.9144 6.67453C75.3214 5.815 74.2433 5.43895 73.273 5.43895C71.4401 5.43895 69.8229 6.35221 69.4456 8.28615C69.3378 8.71591 69.0682 9.14567 68.637 9.14567L64.0549 8.66218C63.6775 8.55474 63.2463 8.28615 63.3541 7.69522C64.4322 2.10827 69.4456 0.442932 73.9737 0.442932C76.2917 0.442932 79.3105 1.03386 81.1434 2.80664C83.4613 4.95546 83.2457 7.85638 83.2457 10.9722V18.3319C83.2457 20.5344 84.1621 21.5014 85.0246 22.737C85.3481 23.1668 85.402 23.704 85.0246 23.9726C84.0004 24.7784 82.2754 26.2826 81.3051 27.0884ZM14.245 15.5384C14.245 17.3649 14.2989 18.9228 13.3825 20.5882C12.6278 21.9312 11.4418 22.737 10.0941 22.737C8.26131 22.737 7.18318 21.3403 7.18318 19.2989C7.18318 15.2698 10.7949 14.5177 14.245 14.5177V15.5384ZM18.9888 27.0884C18.6653 27.357 18.2341 27.4107 17.8567 27.1958C16.2934 25.9065 15.97 25.2619 15.1075 24.0263C12.52 26.6586 10.6332 27.4644 7.29099 27.4644C3.30189 27.4644 0.175293 24.9933 0.175293 20.1047C0.175293 16.2368 2.27766 13.6582 5.24253 12.3689C7.83006 11.2408 11.4418 11.0259 14.1911 10.7036V10.1126C14.1911 8.98451 14.2989 7.6415 13.5981 6.67453C13.0051 5.815 11.927 5.43895 10.9567 5.43895C9.12383 5.43895 7.50662 6.35221 7.12927 8.28615C7.02146 8.71591 6.75192 9.14567 6.32067 9.14567L1.73859 8.66218C1.36124 8.55474 0.929992 8.28615 1.03781 7.69522C2.11594 2.10827 7.12928 0.442932 11.6574 0.442932C13.9754 0.442932 16.9942 1.03386 18.8271 2.80664C21.1451 4.95546 20.9294 7.85638 20.9294 10.9722V18.3319C20.9294 20.5344 21.8458 21.5014 22.7083 22.737C23.0318 23.1668 23.0857 23.704 22.7083 23.9726C21.6841 24.7784 19.9591 26.2826 18.9888 27.0884Z" fill="#CFCFDE"/>
</g>
<defs>
<clipPath id="clip0_2003_1354">
<rect width="153.641" height="46.0923" fill="white" transform="matrix(-1 0 0 -1 153.813 46.5352)"/>
</clipPath>
</defs>
</svg>
