<svg width="194" height="40" viewBox="0 0 194 40" fill="none" xmlns="http://www.w3.org/2000/svg">
<path d="M100.101 19.3435C98.5048 19.3435 97.3538 19.869 96.1867 20.4043V32.5179C97.3046 32.6248 97.9454 32.6248 99.006 32.6248C102.838 32.6248 103.364 30.8634 103.364 28.404V22.6185C103.364 20.8023 102.763 19.3435 100.101 19.3435ZM74.6495 18.6824C71.9904 18.6824 71.3836 20.1474 71.3836 21.9619V22.9814H77.9118V21.9619C77.9118 20.1474 77.3049 18.6824 74.6495 18.6824ZM25.344 31.2909C25.344 32.7263 26.0188 33.4718 27.5081 33.4718C29.1056 33.4718 30.0517 32.9491 31.2178 32.4119V29.5385H27.7247C26.0707 29.5385 25.344 29.8475 25.344 31.2909ZM124.86 19.3435C122.196 19.3435 121.274 20.8023 121.274 22.6185V29.2465C121.274 31.0673 122.196 32.5305 124.86 32.5305C127.516 32.5305 128.446 31.0673 128.446 29.2465V22.6185C128.445 20.8023 127.515 19.3435 124.86 19.3435ZM12.2913 38.7229H4.46184V19.7037H0.549805V13.1502H4.46274V9.21414C4.46274 3.86696 6.6707 0.68811 12.9464 0.68811H18.1714V7.24342H14.9056C12.4622 7.24342 12.3011 8.15962 12.3011 9.86895L12.2913 13.1493H18.2072L17.5154 19.7028H12.2913V38.7229ZM39.0491 38.7723H32.5237L32.2417 37.116C29.2623 38.7723 26.6032 39.0409 24.849 39.0409C20.0635 39.0409 17.5163 35.8324 17.5163 31.3951C17.5163 26.1602 20.4886 24.2919 25.8058 24.2919H31.2178V23.1601C31.2178 20.4879 30.9127 19.7037 26.818 19.7037H20.1234L20.7777 13.1502H28.0952C37.0792 13.1502 39.0491 15.9985 39.0491 23.2131V38.7723ZM61.2388 20.1843C57.1782 19.4854 56.012 19.3318 54.0582 19.3318C50.5489 19.3318 49.4884 20.1088 49.4884 23.0999V28.7579C49.4884 31.749 50.5489 32.5296 54.0582 32.5296C56.012 32.5296 57.1782 32.3733 61.2388 31.6718V38.0645C57.6821 38.8648 55.3649 39.075 53.4067 39.075C45.0008 39.075 41.6598 34.6386 41.6598 28.2297V23.6389C41.6598 17.2246 45.0008 12.7801 53.4067 12.7801C55.3649 12.7801 57.6821 12.9912 61.2388 13.7951V20.1843ZM85.7403 28.2297H71.3827V28.7579C71.3827 31.749 72.4442 32.5296 75.9526 32.5296C79.1066 32.5296 81.0317 32.3733 85.0852 31.6718V38.0645C81.1758 38.8648 79.1388 39.075 75.3037 39.075C66.897 39.075 63.5542 34.6386 63.5542 28.2297V22.9805C63.5542 17.3728 66.0342 12.7801 74.6486 12.7801C83.263 12.7801 85.7403 17.3198 85.7403 22.9805V28.2297ZM111.191 28.351C111.191 34.5452 109.427 39.0633 98.7411 39.0633C94.8818 39.0633 92.6184 38.7229 88.3591 38.0654V2.65704L96.1858 1.34652V13.7323C97.8774 13.1017 100.067 12.781 102.059 12.781C109.886 12.781 111.191 16.303 111.191 21.9628V28.351H111.191ZM136.281 28.4857C136.281 33.8293 134.083 39.0121 124.886 39.0121C115.684 39.0121 113.445 33.8293 113.445 28.4857V23.3263C113.445 17.98 115.684 12.7963 124.886 12.7963C134.083 12.7963 136.281 17.98 136.281 23.3263V28.4857ZM161.353 28.4857C161.353 33.8293 159.153 39.0121 149.957 39.0121C140.756 39.0121 138.517 33.8293 138.517 28.4857V23.3263C138.517 17.98 140.756 12.7963 149.957 12.7963C159.153 12.7963 161.353 17.98 161.353 23.3263V28.4857ZM187.084 38.7229H178.6L171.425 26.7019V38.7229H163.595V2.65614L171.425 1.34562V24.5641L178.6 13.1502H187.084L179.251 25.606L187.084 38.7229ZM149.931 19.3435C147.272 19.3435 146.349 20.8023 146.349 22.6185V29.2465C146.349 31.0673 147.272 32.5305 149.931 32.5305C152.586 32.5305 153.526 31.0673 153.526 29.2465V22.6185C153.526 20.8023 152.586 19.3435 149.931 19.3435ZM191.553 34.2371C192.871 34.2371 193.921 35.3159 193.921 36.6633C193.921 38.0313 192.87 39.0984 191.543 39.0984C190.222 39.0984 189.15 38.0313 189.15 36.6633C189.15 35.3159 190.222 34.2371 191.543 34.2371H191.553ZM191.543 34.6144C190.48 34.6144 189.611 35.5315 189.611 36.6633C189.611 37.8157 190.481 38.7211 191.553 38.7211C192.625 38.7319 193.481 37.8157 193.481 36.674C193.481 35.5324 192.625 34.6144 191.553 34.6144H191.543ZM191.092 38.0753H190.663V35.368C190.888 35.3366 191.103 35.3051 191.425 35.3051C191.834 35.3051 192.1 35.3914 192.264 35.509C192.422 35.6285 192.507 35.8108 192.507 36.0686C192.507 36.4261 192.273 36.6408 191.984 36.7279V36.7486C192.219 36.7926 192.379 37.0064 192.434 37.4043C192.497 37.8256 192.562 37.9864 192.604 38.0744H192.154C192.09 37.9864 192.025 37.7393 191.971 37.3827C191.909 37.0387 191.735 36.9094 191.391 36.9094H191.093V38.0753H191.092ZM191.092 36.577H191.404C191.757 36.577 192.056 36.4468 192.056 36.1117C192.056 35.8746 191.886 35.6384 191.404 35.6384C191.263 35.6384 191.166 35.6492 191.092 35.659V36.577Z" fill="#CFCFDE"/>
</svg>
